<?xml version="1.0" encoding="UTF-8" standalone="no"?>
<svg
   xmlns:dc="http://purl.org/dc/elements/1.1/"
   xmlns:cc="http://creativecommons.org/ns#"
   xmlns:rdf="http://www.w3.org/1999/02/22-rdf-syntax-ns#"
   xmlns:svg="http://www.w3.org/2000/svg"
   xmlns="http://www.w3.org/2000/svg"
   xmlns:sodipodi="http://sodipodi.sourceforge.net/DTD/sodipodi-0.dtd"
   xmlns:inkscape="http://www.inkscape.org/namespaces/inkscape"
   version="1.1"
   id="svg2"
   xml:space="preserve"
   width="1333.3333"
   height="1333.3333"
   viewBox="0 0 1333.3333 1333.3333"
   sodipodi:docname="wg_logo_corporatesymbol_white1r.eps"><metadata
     id="metadata8"><rdf:RDF><cc:Work
         rdf:about=""><dc:format>image/svg+xml</dc:format><dc:type
           rdf:resource="http://purl.org/dc/dcmitype/StillImage" /></cc:Work></rdf:RDF></metadata><defs
     id="defs6" /><sodipodi:namedview
     pagecolor="#ffffff"
     bordercolor="#666666"
     borderopacity="1"
     objecttolerance="10"
     gridtolerance="10"
     guidetolerance="10"
     inkscape:pageopacity="0"
     inkscape:pageshadow="2"
     inkscape:window-width="640"
     inkscape:window-height="480"
     id="namedview4" /><g
     id="g10"
     inkscape:groupmode="layer"
     inkscape:label="ink_ext_XXXXXX"
     transform="matrix(1.3333333,0,0,-1.3333333,0,1333.3333)"><g
       id="g12"
       transform="scale(0.1)"><path
         d="M 5000.04,2000 C 6656.82,2000 8000,3343.13 8000,4999.97 8000,6656.84 6656.82,8000 5000,8000 3343.2,8000 2000,6656.84 2000,4999.97 2000,3343.13 3343.2,2000 5000.04,2000 Z M 2570.01,4999.97 C 2570.01,6342.04 3657.97,7430 5000,7430 c 1341.95,0 2429.91,-1087.96 2429.91,-2430.03 0,-894.95 -483.79,-1676.85 -1204.34,-2098.56 149.37,527.49 215,1069.91 190.44,1691.9 157.95,-44.39 242.96,-72.2 400.91,-116.58 -181.27,455.72 -378.63,872.57 -634.96,1294.32 -229.22,-434.28 -532.77,-841.44 -839.35,-1161.11 l 503.82,31.09 C 5413.26,3866.97 4801.52,3493.16 4030.57,3382.45 c -179.85,864.12 -50.24,2291.32 934.55,2958.27 l 97.86,-478.98 c 193.87,310.71 572.09,713.65 857.74,997.14 -444.72,177.38 -964.29,233.5 -1464.28,139.88 83.87,-69.01 182.99,-159.55 266.85,-228.53 C 3610.87,6302.18 2998.8,5532.21 2597.56,4632.79 c -18.2,119.83 -27.55,242.31 -27.55,367.18 v 0"
         style="fill:#ffffff;fill-opacity:1;fill-rule:evenodd;stroke:none"
         id="path14" /></g></g></svg>
